<?xml version="1.0" encoding="iso-8859-1"?>
<!-- Generator: Adobe Illustrator 19.0.0, SVG Export Plug-In . SVG Version: 6.00 Build 0)  -->
<svg version="1.1" id="Capa_1" xmlns="http://www.w3.org/2000/svg" xmlns:xlink="http://www.w3.org/1999/xlink" x="0px" y="0px"
	 viewBox="0 0 502.664 502.664" style="enable-background:new 0 0 502.664 502.664;" xml:space="preserve">
<g>
	<g>
		<g>
			<path style="fill:#010002;" d="M502.664,3.209H0v376.734h296.081c49.419,49.656,102.375,102.871,102.375,102.871
				c23.534,22.39,60.398,22.132,82.789-0.453c11.282-11.238,16.955-26.208,16.955-41.243c0-14.711-5.479-29.487-16.502-40.898
				c0,0-7.916-7.981-20.126-20.255h41.071V3.209H502.664z M463.578,417.865l-0.28,0.129c12.511,12.986,12.468,33.586-0.324,46.269
				c-12.619,12.77-33.197,12.77-46.075,0.216l-0.28,0.259l-192.26-193.209l0.582-0.496l-87.858-0.302l-24.785-92.323l9.879-9.772
				l49.095,48.987l47.93-47.973l-49.16-49.009l9.879-9.836l92.366,24.742l0.302,90.338L463.578,417.865z M476.995,354.274
				c-3.991,0-18.939,0-40.898,0c-9.513-9.577-19.824-19.953-30.544-30.76h34.147V59.617H59.902v263.897h180.03
				c8.887,8.93,19.284,19.371,30.587,30.76c-112.988,0-232.382,0-244.915,0c0-22.908,0-302.53,0-325.395c23.62,0,427.77,0,451.369,0
				C476.995,51.744,476.995,331.366,476.995,354.274z"/>
			<path style="fill:#010002;" d="M450.872,452.097c5.716-5.803,5.652-14.927,0-20.622c-5.716-5.652-14.905-5.652-20.643,0.022
				c-5.695,5.759-5.608,14.884,0.086,20.6C435.945,457.814,445.156,457.771,450.872,452.097z"/>
		</g>
	</g>
	<g>
	</g>
	<g>
	</g>
	<g>
	</g>
	<g>
	</g>
	<g>
	</g>
	<g>
	</g>
	<g>
	</g>
	<g>
	</g>
	<g>
	</g>
	<g>
	</g>
	<g>
	</g>
	<g>
	</g>
	<g>
	</g>
	<g>
	</g>
	<g>
	</g>
</g>
<g>
</g>
<g>
</g>
<g>
</g>
<g>
</g>
<g>
</g>
<g>
</g>
<g>
</g>
<g>
</g>
<g>
</g>
<g>
</g>
<g>
</g>
<g>
</g>
<g>
</g>
<g>
</g>
<g>
</g>
</svg>
